<svg xmlns="http://www.w3.org/2000/svg" viewBox="0 0 92 92"><defs><style>.a{fill:#ff9b51;}.b{fill:none;stroke:#e68d49;}.c{fill:#fff;fill-rule:evenodd;}</style></defs><rect x="44.5" y="-73" width="30" height="220" rx="3" transform="translate(-8.74 52.91) rotate(-45)"/><rect class="a" x="44.5" y="-73" width="30" height="220" rx="3" transform="translate(-8.74 52.91) rotate(-45)"/><rect class="b" x="44" y="-73.5" width="31" height="221" rx="3" transform="translate(-8.74 52.91) rotate(-45)"/><path class="c" d="M39.09,9.54l2.53,2.53a6.64,6.64,0,0,1,.94,1.16,3.34,3.34,0,0,1,.49,1.23,2.64,2.64,0,0,1-.11,1.27A3.5,3.5,0,0,1,42.1,17a3.43,3.43,0,0,1-1.27.83,2.85,2.85,0,0,1-1.32.14,3.51,3.51,0,0,1-1.29-.43,5.8,5.8,0,0,1-1.17-.9l-1-1L33.75,18l-1.57-1.57,6.91-6.92Zm-.9,5.76c.85.85,1.64.9,2.38.17A1.21,1.21,0,0,0,41,14.38a2.4,2.4,0,0,0-.73-1.17l-.86-.86-2.09,2.09.86.86Zm3.09,10.51a4.45,4.45,0,0,1-1-1.53,4,4,0,0,1-.28-1.7,4.64,4.64,0,0,1,.5-1.78,7.22,7.22,0,0,1,3-3,4.32,4.32,0,0,1,1.75-.47,3.88,3.88,0,0,1,1.68.3,5,5,0,0,1,2.56,2.56,3.88,3.88,0,0,1,.3,1.68,4.51,4.51,0,0,1-.48,1.76A6.61,6.61,0,0,1,48,25.33a6.51,6.51,0,0,1-1.75,1.29,4.45,4.45,0,0,1-1.78.49,3.83,3.83,0,0,1-1.7-.27A4.54,4.54,0,0,1,41.28,25.81Zm1.35-1.35a1.81,1.81,0,0,0,1.73.52,4.13,4.13,0,0,0,2.07-1.25,3.83,3.83,0,0,0,1.21-2,1.94,1.94,0,0,0-2.24-2.24,3.83,3.83,0,0,0-2,1.21,4.9,4.9,0,0,0-.83,1.05,3.31,3.31,0,0,0-.41,1,1.86,1.86,0,0,0,0,.94,1.73,1.73,0,0,0,.48.79ZM52.76,23.2l2.52,2.53a6.64,6.64,0,0,1,.94,1.16,3.34,3.34,0,0,1,.49,1.23,2.64,2.64,0,0,1-.11,1.27,3.5,3.5,0,0,1-.84,1.27,3.43,3.43,0,0,1-1.27.83,2.86,2.86,0,0,1-1.32.15,3.73,3.73,0,0,1-1.29-.44,5.16,5.16,0,0,1-1.17-.9l-1-1-2.34,2.35-1.57-1.57,6.91-6.92ZM51.85,29c.85.85,1.64.91,2.38.17A1.21,1.21,0,0,0,54.67,28a2.4,2.4,0,0,0-.73-1.17L53.08,26,51,28.1l.86.86Zm7.29.63,1.56,1.56L56.83,35a3.47,3.47,0,0,0-1.12,1.73A1.49,1.49,0,0,0,56.2,38a1.57,1.57,0,0,0,1.31.51,3.34,3.34,0,0,0,1.75-1.1l3.87-3.87,1.51,1.5L60.92,38.8a5.38,5.38,0,0,1-3.23,1.84,3.63,3.63,0,0,1-2.83-1.25,3.68,3.68,0,0,1-1.26-2.85,5.32,5.32,0,0,1,1.83-3.24Zm7.06,7.06,1.57,1.57-5.6,5.6,2.73,2.73-1.32,1.31-4.29-4.29,6.91-6.92Zm4.3,12.4.47-.8c.24-.45.52-.91.82-1.39s.58-.94.84-1.4l0-.05-1.38.88c-.48.29-.95.56-1.39.81l-.81.47,1.49,1.48Zm-.9,1.54-2.13-2.12-2.06,1.22L63.82,48.1l9.09-4.74,1.86,1.86L70,54.31l-1.65-1.65,1.22-2.07Zm6.46,2.28.79.8a2,2,0,0,0,1.2.67,1.28,1.28,0,0,0,1.09-.44,1.09,1.09,0,0,0,.39-1,2.45,2.45,0,0,0-.74-1.14l-.79-.8-1.94,1.94ZM74.5,58.78,75.66,55l-.85-.85L72.32,56.6,70.75,55l6.92-6.91,2.49,2.49a6.84,6.84,0,0,1,.93,1.14,3.42,3.42,0,0,1,.49,1.2,2.5,2.5,0,0,1-.08,1.24,3.25,3.25,0,0,1-.82,1.25,3,3,0,0,1-1.6.91,2.9,2.9,0,0,1-1.62-.15l-1.21,4.33L74.5,58.78Z"/></svg>