<?xml version="1.0" encoding="UTF-8"?>
<!DOCTYPE svg PUBLIC "" "">
<?xml-stylesheet href="bano-negro.css" type="text/css"?>
<svg xmlns="http://www.w3.org/2000/svg" xml:space="preserve" width="100px" height="84px" version="1.1" style="" viewBox="620 1200 1250 1000"
 xmlns:xlink="http://www.w3.org/1999/xlink">
 <defs>
  <style type="text/css">
   <![CDATA[
    .fil0 {
		fill:white;
	}
	#bath-negro {
		shape-rendering:geometricPrecision;
		text-rendering:geometricPrecision;
		image-rendering:optimizeQuality;
		fill-rule:evenodd;
		clip-rule:evenodd;
	}
   ]]>
  </style>
 </defs>
 <g id="bath-negro">
  <metadata id="bath-style"/>
	  <path class="fil0" d="M1794 1754c-9,18 -14,37 -17,57 -27,187 -87,312 -186,316 5,6 7,13 7,21 0,21 -18,37 -40,37 -22,0 -40,-16 -40,-37 0,-8 3,-15 8,-21l-572 0c5,6 8,13 8,21 0,21 -18,37 -40,37 -22,0 -40,-16 -40,-37 0,-8 2,-15 7,-21 -99,-4 -159,-129 -186,-316 -3,-20 -8,-39 -17,-57l1108 0z"/>
	  <path class="fil0" d="M665 1716c-10,-15 -22,-30 -36,-45l94 0c-6,-15 -9,-31 -9,-48 0,-74 60,-135 134,-135 74,0 134,61 134,135 0,17 -3,33 -8,48l877 0c-14,15 -26,30 -36,45l-1150 0z"/>
	  <path class="fil0" d="M1214 1405c32,0 58,27 58,59 0,32 -26,58 -58,58 -32,0 -58,-26 -58,-58 0,-32 26,-59 58,-59zm-7 21c26,0 47,21 47,47 0,26 -21,47 -47,47 -26,0 -47,-21 -47,-47 0,-26 21,-47 47,-47z"/>
	  <path class="fil0" d="M1347 1243c38,0 69,31 69,69 0,37 -31,68 -69,68 -37,0 -68,-31 -68,-68 0,-38 31,-69 68,-69zm-8 24c30,0 55,25 55,55 0,31 -25,55 -55,55 -30,0 -55,-24 -55,-55 0,-30 25,-55 55,-55z"/>
	  <path class="fil0" d="M1414 1443c18,0 34,15 34,34 0,19 -16,34 -34,34 -19,0 -35,-15 -35,-34 0,-19 16,-34 35,-34zm-5 12c16,0 28,12 28,27 0,15 -12,28 -28,28 -15,0 -27,-13 -27,-28 0,-15 12,-27 27,-27z"/>
	  <path class="fil0" d="M1335 1578c32,0 58,26 58,59 0,32 -26,58 -58,58 -33,0 -59,-26 -59,-58 0,-33 26,-59 59,-59zm-7 21c25,0 46,21 46,47 0,26 -21,47 -46,47 -26,0 -47,-21 -47,-47 0,-26 21,-47 47,-47z"/>
	  <path class="fil0" d="M1568 1535c46,0 83,37 83,83 0,45 -37,83 -83,83 -46,0 -83,-38 -83,-83 0,-46 37,-83 83,-83zm-10 29c37,0 67,30 67,67 0,37 -30,67 -67,67 -37,0 -67,-30 -67,-67 0,-37 30,-67 67,-67z"/>
	  <path class="fil0" d="M1124 1602c26,0 48,21 48,48 0,26 -22,48 -48,48 -27,0 -49,-22 -49,-48 0,-27 22,-48 49,-48zm-6 17c21,0 39,17 39,38 0,22 -18,39 -39,39 -22,0 -39,-17 -39,-39 0,-21 17,-38 39,-38z"/>
 </g>
</svg>